# xmcd
# Track frame offsets:
# 150
# 9620
# 20693
# 35704
# 46325
# 58555
# 70206
# 83724
# 98374
# 110796
# 123806
# 133697
#
# Disc length: 1914 seconds
# Revision: 1
# Processed by: cddbd v1.5.2PL0 Copyright (c) Steve Scherf et al.
# Submitted via: VisiTrax 2.11.2.271 - For more info visit www.synapsa.com
#
DISCID=9b07780c
DTITLE=Slim Dusty And Joy McKean - An Evening With Slim And Joy
DYEAR=1966
DGENRE=Australian Country
TTITLE0=Slim Dusty - The Wild Life You lead
TTITLE1=Slim And Joy - When It´s Lamplighting Time In The Valley
TTITLE2=Joy McKean - The Spinning Wheel
TTITLE3=Slim Dusty - Road Of Loneliness
TTITLE4=Joy McKean - Old Paint
TTITLE5=Slim And Joy - Down The Dusty Road To Home
TTITLE6=Slim Dusty - Road Train Blues
TTITLE7=Joy McKean - Barb´ry Allen
TTITLE8=Slim And Joy - My Love´s A Stranger Now
TTITLE9=Slim And Joy - If Jesus Called On You Now
TTITLE10=Joy McKean - Bury Me Beneath The Willow
TTITLE11=Slim And Joy - Morning Mail
EXTD=1996 EMI Music Australia
EXTT0=
EXTT1=
EXTT2=
EXTT3=
EXTT4=
EXTT5=
EXTT6=
EXTT7=
EXTT8=
EXTT9=
EXTT10=
EXTT11=
PLAYORDER=
